<svg width="13" height="14" viewBox="0 0 13 14" fill="none" xmlns="http://www.w3.org/2000/svg">
<path fill-rule="evenodd" clip-rule="evenodd" d="M1.6221 13.7801C1.04063 13.5406 0.356903 13.0472 0.108198 12.4751C-0.15784 11.8589 0.113397 11.2521 0.41843 10.7816C0.738194 10.3009 1.16541 9.843 1.6325 9.52309C2.08658 9.21334 2.62905 8.99752 3.12213 9.08131C3.61348 9.17017 3.96097 9.54763 4.13515 9.73721C4.23567 9.84893 4.29807 9.92171 4.34226 9.97249L4.42719 10.0614L4.52511 10.0157C4.64816 9.94795 4.86047 9.80746 5.31109 9.50363C5.88562 9.11262 6.78166 8.49565 7.51391 7.71026C8.25396 6.92487 8.8337 5.97022 9.06767 5.42772C9.17599 5.17721 9.18553 5.06888 9.1734 5.00456C9.15173 4.98425 9.12833 4.96732 9.08674 4.94447C8.87616 4.82683 8.38395 4.65756 8.10318 4.42652C7.75569 4.13877 7.69849 3.75623 7.71322 3.44986C7.73055 3.14179 7.81548 2.85066 7.96366 2.5189C8.11011 2.19053 8.32416 1.80545 8.59712 1.4373C8.8675 1.0683 9.19679 0.716226 9.4351 0.497027C9.68987 0.26598 9.86492 0.172038 10.0972 0.0882524C10.3398 0.00277332 10.6726 -0.0759355 11.1717 0.133953C11.6206 0.318452 12.2385 0.752618 12.5851 1.22317C12.9542 1.72251 13.0071 2.24384 12.9993 2.68393C12.9889 3.15534 12.9005 3.5785 12.3936 4.63218C11.8884 5.68331 10.9421 7.39881 9.60321 8.94843C8.26523 10.4981 6.54422 11.864 5.46707 12.6731C4.39859 13.4729 3.90378 13.7708 3.35957 13.9104C2.8171 14.0518 2.24083 14.0382 1.6221 13.7801ZM3.19232 13.2969C3.59615 13.1928 3.99737 12.9744 5.07105 12.1696C6.13953 11.3672 7.81548 10.0351 9.10667 8.53966C10.3953 7.04759 11.3138 5.38456 11.8052 4.3622C12.293 3.34745 12.3416 3.01569 12.3502 2.67124C12.3563 2.29208 12.3086 1.93324 12.0573 1.59471C11.7904 1.23079 11.2731 0.864333 10.9178 0.718765C10.6093 0.588431 10.4551 0.636671 10.3199 0.684912C10.1708 0.73823 10.0686 0.788164 9.87965 0.959968C9.67081 1.15208 9.36924 1.47369 9.12487 1.80883C8.87963 2.13805 8.68812 2.48251 8.559 2.77195C8.43161 3.0597 8.37442 3.27467 8.36228 3.48286C8.35275 3.69106 8.39435 3.83494 8.52347 3.94157C8.71585 4.10068 9.1188 4.23102 9.40824 4.39182C9.51656 4.45191 9.65434 4.54162 9.7514 4.70581L9.78086 4.7659C9.89438 5.03249 9.81206 5.33886 9.66647 5.674C9.40304 6.2842 8.78344 7.30149 7.99313 8.13935C7.20715 8.98229 6.25565 9.63481 5.68111 10.0258C5.12911 10.3965 4.85701 10.5827 4.65423 10.6563C4.6005 10.6758 4.54331 10.6919 4.48438 10.6995C4.32233 10.7206 4.18715 10.6775 4.06669 10.5954L4.01123 10.5514C3.91331 10.4651 3.80412 10.3305 3.64901 10.1595C3.46096 9.95302 3.24865 9.74991 3.00688 9.70674C2.76857 9.66527 2.40634 9.76937 2.00599 10.0436C1.61863 10.3076 1.24687 10.7029 0.965236 11.1243C0.681001 11.5627 0.574413 11.9207 0.706998 12.2271C0.860381 12.5826 1.36559 12.9863 1.876 13.1953C2.35608 13.3959 2.7833 13.4043 3.19232 13.2969Z" fill="white"/>
<path d="M3.19232 13.2969C3.59615 13.1928 3.99737 12.9744 5.07105 12.1696C6.13953 11.3672 7.81548 10.0351 9.10667 8.53966C10.3953 7.04759 11.3138 5.38456 11.8052 4.3622C12.293 3.34745 12.3416 3.01569 12.3502 2.67124C12.3563 2.29208 12.3086 1.93324 12.0573 1.59471C11.7904 1.23079 11.2731 0.864333 10.9178 0.718765C10.6093 0.588431 10.4551 0.636671 10.3199 0.684912C10.1708 0.73823 10.0686 0.788164 9.87965 0.959968C9.67081 1.15208 9.36924 1.47369 9.12487 1.80883C8.87963 2.13805 8.68812 2.48251 8.559 2.77195C8.43161 3.0597 8.37442 3.27467 8.36228 3.48286C8.35275 3.69106 8.39435 3.83494 8.52347 3.94157C8.71585 4.10068 9.1188 4.23102 9.40824 4.39182C9.51656 4.45191 9.65434 4.54162 9.7514 4.70581L9.78086 4.7659C9.89438 5.03249 9.81206 5.33886 9.66647 5.674C9.40304 6.2842 8.78344 7.30149 7.99313 8.13935C7.20715 8.98229 6.25565 9.63481 5.68111 10.0258C5.12911 10.3965 4.85701 10.5827 4.65423 10.6563C4.6005 10.6758 4.54331 10.6919 4.48438 10.6995C4.32233 10.7206 4.18715 10.6775 4.06669 10.5954L4.01123 10.5514C3.91331 10.4651 3.80412 10.3305 3.64901 10.1595C3.46096 9.95302 3.24865 9.74991 3.00688 9.70674C2.76857 9.66527 2.40634 9.76937 2.00599 10.0436C1.61863 10.3076 1.24687 10.7029 0.965236 11.1243C0.681001 11.5627 0.574413 11.9207 0.706998 12.2271C0.860381 12.5826 1.36559 12.9863 1.876 13.1953C2.35608 13.3959 2.7833 13.4043 3.19232 13.2969Z" fill="white"/>
</svg>
